<?xml version="1.0" encoding="UTF-8"?><svg id="uuid-9bea9ff7-c0e7-4ce1-a63c-63318e692186" xmlns="http://www.w3.org/2000/svg" viewBox="0 0 376.77 58.39">
<title>Blue Dart Express logo - Brandlogos.net</title><path d="M20.32,33.78h0v9.02h2.81c1.62,0,2.88-.4,3.76-1.17.88-.79,1.32-1.9,1.32-3.35s-.44-2.58-1.32-3.35c-.88-.77-2.14-1.16-3.76-1.16h-2.81ZM20.32,13.45h0v8.1h2.2c1.36,0,2.4-.35,3.13-1.05.71-.69,1.07-1.7,1.07-3.03s-.36-2.31-1.07-3c-.73-.69-1.77-1.03-3.13-1.03h-2.2ZM0,15.43L4.54,0h22.39c4.74,0,8.46,1.37,11.12,4.1,2.66,2.75,4,6.56,4,11.44,0,3.12-.65,5.71-1.92,7.77-1.27,2.05-3.06,3.41-5.39,4.02,3.15.81,5.52,2.33,7.07,4.54,1.55,2.22,2.32,5.21,2.32,8.95,0,5.31-1.48,9.29-4.39,11.99-2.9,2.7-7.21,4.05-12.87,4.05H4.54V15.43H0Z" style="fill:#0f62ac;"/><polygon points="50.12 0 66.95 0 66.95 41.42 79.98 41.42 75.47 56.85 50.12 56.86 50.12 15.44 45.57 15.44 50.09 0 50.12 0" style="fill:#0f62ac;"/><path d="M80.92,15.43l4.51-15.43h16.69v31.03c0,3.61.34,6.08,1.04,7.44.71,1.37,1.91,2.03,3.63,2.03s2.88-.69,3.6-2.09c.72-1.41,1.09-3.86,1.09-7.38V0h16.68v30.87c0,4.04-.22,7.37-.64,9.98-.45,2.61-1.13,4.81-2.09,6.56-1.87,3.55-4.41,6.27-7.63,8.15-3.22,1.88-6.89,2.84-11.01,2.84s-7.85-.96-11.06-2.84c-3.23-1.89-5.77-4.61-7.62-8.15-.94-1.74-1.61-3.89-2.05-6.49-.41-2.59-.63-5.93-.63-10.05v-15.43h-4.51Z" style="fill:#0f62ac;"/><polygon points="132.31 15.43 136.84 0 136.82 0 167.98 0 163.52 15.43 153.19 15.43 153.19 20.95 166.6 20.95 162.32 35.47 153.19 35.47 153.19 41.43 168.36 41.43 163.86 56.86 136.82 56.86 136.82 15.43 132.31 15.43" style="fill:#0f62ac;"/><path d="M213.91,39.44h0c3.82-.03,6.61-.92,8.37-2.7,1.76-1.78,2.65-4.57,2.65-8.33s-.85-6.45-2.54-8.27c-1.68-1.8-4.25-2.72-7.74-2.72h-.74v22.03ZM197.4,0h13.49c4.3,0,7.99.3,11.03.88,3.06.59,5.53,1.48,7.44,2.7,4.03,2.59,7.13,6.03,9.3,10.3,2.15,4.26,3.23,9.13,3.23,14.59s-1.07,10.28-3.21,14.53-5.25,7.68-9.32,10.3c-1.98,1.23-4.48,2.14-7.51,2.71-3.04.58-7.12.85-12.22.85h-12.24V15.44h.02-4.5L197.38.03l.02-.03Z" style="fill:#3ca653;"/><polygon points="253.71 15.43 241.65 56.86 259.57 56.86 261.02 49.67 273.62 49.67 275.13 56.86 293.13 56.86 276.85 0 253.73 0 249.21 15.43 253.71 15.43" style="fill:#3ca653;"/><path d="M263.82,36.23h6.97l-1.44-6.46c-.7-3.27-1.17-5.77-1.42-7.54-.26-1.76-.41-3.41-.49-4.97h-.28c-.08,1.56-.22,3.21-.49,4.97-.25,1.77-.72,4.27-1.42,7.54l-1.43,6.46Z" style="fill:#fefefe;"/><path d="M312.02,14.68h0v11.15h2.62c1.58,0,2.81-.49,3.68-1.42.85-.96,1.29-2.32,1.29-4.09s-.44-3.22-1.29-4.2c-.87-.96-2.1-1.45-3.68-1.45h-2.62ZM295.64,0h21.04c6.12,0,10.78,1.64,14,4.94,3.23,3.29,4.85,8.04,4.85,14.23,0,4.05-.8,7.39-2.42,10.02-1.63,2.61-3.84,4.16-6.57,4.59l12.43,23.07h-18.78l-8.16-18.7v18.7h-16.38V15.46l-.02-.03h-4.5L295.62,0h.02Z" style="fill:#3ca653;"/><polygon points="348.34 56.86 348.34 15.44 338.78 15.44 343.26 .01 376.77 .01 372.24 15.44 365.01 15.44 365.01 56.86 348.34 56.86" style="fill:#3ca653;"/></svg>