<svg id="Layer_1" data-name="Layer 1" xmlns="http://www.w3.org/2000/svg" viewBox="0 0 398.75 95.76"><title>Mondelez International logo - Brandlogos.net</title><path d="M408.45,336.12l1,.31c3.47,1,5.5,3.92,5.49,7.92,0,13.73-.06,27.46-.05,41.18a21.26,21.26,0,0,0,.51,4.62,6.63,6.63,0,0,0,3.66,4.43c-1.26,2.64-5.79,4.13-9.78,3.23a11.66,11.66,0,0,1-8.37-6.31A11.66,11.66,0,0,1,390.55,398a20.38,20.38,0,0,1-5.78-.57c-4.26-1-7.07-3.84-8.82-7.7a29,29,0,0,1-.44-23.92c1.54-3.72,4.08-6.65,8-7.9,5.3-1.65,9.93-.25,13.92,3.52.77.73,1.44,1.55,2.35,2.55V344.64c0-4.72,1.78-7.11,6.25-8.42a.42.42,0,0,0,.13-.11h2.25Zm-9.65,41.47c0-.62-.05-1.45-.15-2.28a11.37,11.37,0,0,0-2.32-6.19,4.26,4.26,0,0,0-6.83,0,10.2,10.2,0,0,0-1.54,2.75,19.13,19.13,0,0,0-.75,8.85,10.4,10.4,0,0,0,1.74,5.25,4.61,4.61,0,0,0,5,2c2-.44,3.11-1.92,3.83-3.72a19.15,19.15,0,0,0,1-6.65Z" transform="translate(-184.63 -336.12)" style="fill:#4b0983"/><path d="M469,336.12a18.23,18.23,0,0,1,2.14.82,7.47,7.47,0,0,1,4.19,7.08c0,13.92,0,27.85,0,41.78a25.94,25.94,0,0,0,.26,3.35,7,7,0,0,0,4,5.49c-.31.34-.57.67-.87.95-3,2.8-6.54,3.05-10.28,1.89-5.27-1.65-8.14-5.65-8.15-11.54q-.06-21.28,0-42.56a7.52,7.52,0,0,1,5.79-7.07,4.59,4.59,0,0,0,.54-.2Z" transform="translate(-184.63 -336.12)" style="fill:#4b0983"/><path d="M184.63,397.43c.3-1.1.51-2.24.92-3.3a12.24,12.24,0,0,1,12.68-8.05c4,.37,7.11,2.58,9.4,5.85,1,1.5,1.87,3.16,2.77,4.76a10,10,0,0,0,8.39,5.5,12.5,12.5,0,0,0,7.84-2s.08.12.06.13c-3.85,5.08-8.26,9.48-14.42,11.68-5.64,2-11.36,2.52-17.07.45-4.9-1.77-8.51-5-10.1-10.15-.19-.62-.32-1.27-.48-1.91Z" transform="translate(-184.63 -336.12)" style="fill:#4b0983"/><path d="M283.86,342.58c-3.19,2.42-4.25,5.95-5,9.59a60.55,60.55,0,0,0-.55,17.09,58.56,58.56,0,0,0,4,17.14A27.42,27.42,0,0,0,293.59,400a21.52,21.52,0,0,0,9.43,3c-.18.4-.31.74-.48,1.05-5.72,11.12-18.61,11.47-26,4.75a27,27,0,0,1-7.1-11.44,59.91,59.91,0,0,1-3-15.7,112.64,112.64,0,0,1,0-15,2.86,2.86,0,0,0-.16-1.19l-15.4,20.85-13.6-20.94-.2,0c-.08.91-.16,1.82-.24,2.74a84.32,84.32,0,0,1-3.85,19.48,15.48,15.48,0,0,1-8,9.66,8.2,8.2,0,0,1-10.8-2.76,43.47,43.47,0,0,1-2.31-4c4.86-2.22,7.35-6.25,9.3-10.68A57.19,57.19,0,0,0,225.41,363a39.06,39.06,0,0,0-.32-12,13.74,13.74,0,0,0-4.15-8,21.81,21.81,0,0,1,1.8-1.7c2.57-1.91,5.52-2.24,8.59-2A11.68,11.68,0,0,1,240,344.7c2.84,4.08,5.48,8.29,8.2,12.45,1,1.58,2.05,3.18,3.08,4.78.15.23.32.45.54.75.23-.28.41-.48.57-.71l11.45-15.86c1.54-2.14,3.17-4.21,5.56-5.42a12.76,12.76,0,0,1,12.79.45,6.25,6.25,0,0,1,1,.8,7.93,7.93,0,0,1,.59.64Z" transform="translate(-184.63 -336.12)" style="fill:#4b0983"/><path d="M327.59,359.24c3-3.51,6.71-4.08,10.78-3,4.62,1.24,7.33,4.25,7.86,9.33l.67-.92a16.84,16.84,0,0,1,8.9-6.83,12.24,12.24,0,0,1,5.27-.38c3.43.51,5.46,2.67,6.57,5.84a24.1,24.1,0,0,1,1.21,8.15c0,4.86-.15,9.72-.14,14.58a17.68,17.68,0,0,0,.54,4.35,6.67,6.67,0,0,0,3.74,4.27,8.77,8.77,0,0,1-5.9,3.39,12.13,12.13,0,0,1-8.86-2.27,9.42,9.42,0,0,1-3.83-8c0-5.41,0-10.82,0-16.23a6.38,6.38,0,0,0-.35-2.11,3.16,3.16,0,0,0-5.34-1.28,7.8,7.8,0,0,0-2.51,5.69c-.06,5.69,0,11.39,0,17.08a6.55,6.55,0,0,1-3.83,6.33,7.17,7.17,0,0,1-7.72-.61,6.43,6.43,0,0,1-2.71-5.08c-.11-2.32,0-4.66,0-7,0-5.78-.06-11.57,0-17.35,0-3.45-1-6.27-4.29-8Z" transform="translate(-184.63 -336.12)" style="fill:#4b0983"/><path d="M327.61,377.51a20.5,20.5,0,1,1-21-20.56A20.51,20.51,0,0,1,327.61,377.51Zm-26.31.18c.1,1.38.14,2.76.32,4.12a11.33,11.33,0,0,0,2.16,5.9,4.31,4.31,0,0,0,6.85,0,9,9,0,0,0,1.47-2.79,25.6,25.6,0,0,0,.61-12,11.07,11.07,0,0,0-2.41-5.72,3.82,3.82,0,0,0-6.15.07,11.69,11.69,0,0,0-1.67,3,20.68,20.68,0,0,0-1.17,7.45Z" transform="translate(-184.63 -336.12)" style="fill:#4b0983"/><path d="M554.47,355.8A7.72,7.72,0,0,1,557,361.5a11.85,11.85,0,0,1-2.63,7.93,40.74,40.74,0,0,1-7.42,7.39c-3.84,3.15-7.69,6.26-11.55,9.41,0,0-.05.09-.1.19a1,1,0,0,0,.31.1c3.2,0,6.41,0,9.63-.11a14.72,14.72,0,0,0,8.48-2.88,7.2,7.2,0,0,1,1.66,3.33c1,4.38-1.42,9.34-5.36,10.94a8.75,8.75,0,0,1-7.47-.54c-1.67-.82-3.26-1.83-4.93-2.62-4.15-1.95-8.45-1.7-12.77-.6a20.24,20.24,0,0,0-7.51,3.47,12.23,12.23,0,0,1,.26-5.52,26.31,26.31,0,0,1,10.77-15.8c2.92-2,6-3.79,9-5.68.31-.19.64-.36,1.2-.68-.51,0-.77-.06-1-.06-3.78,0-7.56,0-11.35,0a11.44,11.44,0,0,1-2.56-.22,5.34,5.34,0,0,1-4.25-5.51,5.73,5.73,0,0,1,4.7-5.22,9.54,9.54,0,0,1,1.62-.13c7.65,0,15.31,0,23,0a16.06,16.06,0,0,0,1.72-.09,4.84,4.84,0,0,0,4-2.73Z" transform="translate(-184.63 -336.12)" style="fill:#4b0983"/><path d="M454.71,385.78c-.86,4.89-3.33,8.71-8,10.72a20.09,20.09,0,0,1-24.55-7A20.33,20.33,0,0,1,419,375.88c.58-6.53,3.3-11.92,8.84-15.62a18.72,18.72,0,0,1,12.8-2.92,22.62,22.62,0,0,1,10.55,3.57,11.55,11.55,0,0,1,5.1,12.27c-.78,3.84-3.42,5.82-6.89,7a29.68,29.68,0,0,1-8.28,1.36c-2.48.09-5,0-7.65,0a9.14,9.14,0,0,0,2.64,4.17,10.62,10.62,0,0,0,6.8,2.73,21.27,21.27,0,0,0,8.31-1,37.85,37.85,0,0,0,3.51-1.65Zm-22-10.53a5,5,0,0,0,.55.09c1.26,0,2.53,0,3.78-.07a7.76,7.76,0,0,0,2.46-.65,5.72,5.72,0,0,0,3.23-5.62,4,4,0,0,0-2.79-3.48c-1.88-.57-3.3.25-4.44,1.64-1.92,2.32-2.35,5.15-2.78,8.08Z" transform="translate(-184.63 -336.12)" style="fill:#4b0983"/><path d="M494,381.83a9.6,9.6,0,0,0,5.19,5.58,10.56,10.56,0,0,0,5,1,59.51,59.51,0,0,0,6.3-.67,9.38,9.38,0,0,0,4.72-2.28c-.14.73-.21,1.25-.34,1.75a13.59,13.59,0,0,1-11.11,10.37c-7.29,1.5-13.7-.24-19-5.55a18.39,18.39,0,0,1-5.29-11.69,21.84,21.84,0,0,1,3.78-15.23c4.39-6.07,10.46-8.5,17.82-7.81a22.64,22.64,0,0,1,10.12,3.28A11.63,11.63,0,0,1,516.47,374a8.85,8.85,0,0,1-5.69,5.78,23.35,23.35,0,0,1-7.19,1.55c-3.16.22-6.34.33-9.65.5Zm-.85-6.62a43.48,43.48,0,0,0,5,0,5.65,5.65,0,0,0,4.92-4.82,4.11,4.11,0,0,0-2-4.54,3.75,3.75,0,0,0-4.74.93c-2.28,2.35-2.71,5.38-3.17,8.46Z" transform="translate(-184.63 -336.12)" style="fill:#4b0983"/><path d="M541.16,400.2c4,2.15,8,2.88,12.14.85a8.71,8.71,0,0,0,3.64-3.33c.84-1.37,1.62-2.77,2.41-4.18a14.43,14.43,0,0,1,7.51-6.78,12.21,12.21,0,0,1,15.49,7,13.13,13.13,0,0,1-3.52,15,18.59,18.59,0,0,1-12.21,4.83c-9.23.39-16.69-3.27-22.7-10.14-1-1.08-1.83-2.2-2.74-3.31Z" transform="translate(-184.63 -336.12)" style="fill:#4b0983"/><path d="M498.76,352H487.84a4.82,4.82,0,1,1-.05-9.63q11,0,21.93,0a4.94,4.94,0,0,1,4.84,4.85,4.88,4.88,0,0,1-4.87,4.77H498.76Z" transform="translate(-184.63 -336.12)" style="fill:#4b0983"/><path d="M511.09,429.46c-1.81,2.15-4.1,2.53-6.65,2a5.71,5.71,0,0,1-4.11-3.47,12.91,12.91,0,0,1-.23-10.7c1.88-4.45,7-5.23,10.2-1.63.17.19.36.37.6.62.09-.38.15-.7.24-1a3.46,3.46,0,0,1,3.63-2.42,3.35,3.35,0,0,1,2.93,3.22c0,4.16.08,8.33,0,12.49a3.33,3.33,0,0,1-2.74,3.2,3.51,3.51,0,0,1-3.63-1.91c-.07-.12-.15-.23-.25-.38Zm-.39-6.88a32.25,32.25,0,0,0-.84-3.2,2,2,0,0,0-2-1.45,2.16,2.16,0,0,0-2,1.48,8.07,8.07,0,0,0-.07,6.28,2.13,2.13,0,0,0,2.1,1.48,2,2,0,0,0,2-1.45c.34-1,.5-2,.76-3.15Z" transform="translate(-184.63 -336.12)" style="fill:#4b0983"/><path d="M428.67,429.45a6.55,6.55,0,0,1-11-1.89,13.22,13.22,0,0,1,0-10.32c1.92-4.4,6.92-5.15,10.17-1.62l.6.64a11.21,11.21,0,0,1,.42-1.44,3.36,3.36,0,0,1,6.43,1.35c0,2.51,0,5,0,7.51,0,1.49,0,3,0,4.48a3.36,3.36,0,0,1-6.38,1.7l-.25-.42Zm-6-6.89c.25,1.09.39,2.15.72,3.14a2.06,2.06,0,0,0,2.09,1.49,2.1,2.1,0,0,0,2-1.44,7.94,7.94,0,0,0-.08-6.35,2.13,2.13,0,0,0-1.95-1.45,2.09,2.09,0,0,0-2,1.48,27.83,27.83,0,0,0-.8,3.14Z" transform="translate(-184.63 -336.12)" style="fill:#4b0983"/><path d="M404.63,417.77c.61-.68,1.07-1.25,1.6-1.76a6.09,6.09,0,0,1,4.49-1.82,3.23,3.23,0,0,1,3.36,2.44,18.76,18.76,0,0,1,.64,4.23c.1,2.5,0,5,0,7.51a3.22,3.22,0,1,1-6.43,0v-7.77c0-1.08-.38-1.74-1.1-1.92a1.68,1.68,0,0,0-2,1.12,5.42,5.42,0,0,0-.55,2.12c-.08,2.21,0,4.43,0,6.65a3.22,3.22,0,1,1-6.43,0c0-1,0-1.9,0-2.85q0-4.58,0-9.15a3.22,3.22,0,0,1,6.44-.08c0,.39,0,.78,0,1.32Z" transform="translate(-184.63 -336.12)" style="fill:#4b0983"/><path d="M339.09,417.78c.63-.69,1.09-1.28,1.62-1.78a6,6,0,0,1,4.24-1.81A3.42,3.42,0,0,1,348.7,417a18.14,18.14,0,0,1,.47,3.75c.08,2.53,0,5.06,0,7.59a3.22,3.22,0,1,1-6.44,0c0-2.5,0-5,0-7.51a2.19,2.19,0,0,0-.08-1c-.28-.46-.64-1.06-1.08-1.18a1.64,1.64,0,0,0-1.49.47,5.65,5.65,0,0,0-1,2.56c-.14,2.18,0,4.37,0,6.56a3.29,3.29,0,0,1-3.21,3.52,3.25,3.25,0,0,1-3.23-3.49V416.68a3.22,3.22,0,1,1,6.43,0v1.13Z" transform="translate(-184.63 -336.12)" style="fill:#4b0983"/><path d="M487.3,417.65a5.57,5.57,0,0,1,.81-1,14.46,14.46,0,0,1,3-2.1c3.08-1.25,5.44.2,5.91,3.48a21.54,21.54,0,0,1,.21,2.83c0,2.62.05,5.24,0,7.85a3.19,3.19,0,0,1-6.11,1.15,3.24,3.24,0,0,1-.23-1.25c0-2.62,0-5.24,0-7.85a3.47,3.47,0,0,0-.18-1.18,1.41,1.41,0,0,0-2.41-.55,4,4,0,0,0-1.17,2.88c0,2.24,0,4.48,0,6.73a3.19,3.19,0,0,1-2.68,3.12,3.23,3.23,0,0,1-3.56-2.21,3.81,3.81,0,0,1-.13-1c0-4,0-8.06,0-12.08a3.19,3.19,0,0,1,6.38,0v1.18l.21,0Z" transform="translate(-184.63 -336.12)" style="fill:#4b0983"/><path d="M478.83,422.65a9.18,9.18,0,1,1-18.36-.15,9.18,9.18,0,1,1,18.37.15Zm-6.34.07a9.89,9.89,0,0,0-1-4.27c-.93-1.58-2.51-1.59-3.47,0a3.11,3.11,0,0,0-.34.7,10.8,10.8,0,0,0,0,7.1,2.16,2.16,0,0,0,2.06,1.68,2.09,2.09,0,0,0,2.06-1.65c.35-1.14.5-2.34.74-3.52Z" transform="translate(-184.63 -336.12)" style="fill:#4b0983"/><path d="M370.42,424.4c.81,3.18,5.46,4.07,9.41,1.91a6,6,0,0,1-3.56,4.77A8.89,8.89,0,0,1,364,424.94c-1.14-4.92,1.47-9.84,6-11.12a9.7,9.7,0,0,1,8.36,1.42,5,5,0,0,1,2.12,5.43,3.59,3.59,0,0,1-2.83,2.95c-1.85.42-3.78.55-5.67.78a14.06,14.06,0,0,1-1.62,0Zm-.43-2.85a19.73,19.73,0,0,0,2.25,0,2.56,2.56,0,0,0,2.18-2.13,1.83,1.83,0,0,0-1-2.1,1.73,1.73,0,0,0-2.21.58,6.41,6.41,0,0,0-1.26,3.66Z" transform="translate(-184.63 -336.12)" style="fill:#4b0983"/><path d="M528.91,430.37a4,4,0,0,1-4.33,1.32,4.75,4.75,0,0,1-3.9-5.06q0-9.61,0-19.23a3.22,3.22,0,1,1,6.43.08q0,9.53,0,19.06c0,1.56.2,3,1.79,3.84Z" transform="translate(-184.63 -336.12)" style="fill:#4b0983"/><path d="M321.21,405.62a4.55,4.55,0,0,1,6.33-.39,5.16,5.16,0,0,1,1.87,4.43q0,9.42,0,18.82a3.22,3.22,0,1,1-6.44,0v-19c0-1.52-.21-3-1.77-3.82Z" transform="translate(-184.63 -336.12)" style="fill:#4b0983"/><path d="M363.24,428.42c-1.69,3.54-5.29,4.49-8.42,1.86a5.52,5.52,0,0,1-2-4.46c0-2.48,0-4.95,0-7.42,0-.26,0-.52,0-.75-1.75-.25-2.05-.49-2-1.54s.35-1.25,2.08-1.5c0-.66,0-1.35,0-2a3.27,3.27,0,0,1,3.17-3.3,3.34,3.34,0,0,1,3.3,3.28c0,.65,0,1.32,0,2.14h2.31c1.14,0,1.62.42,1.64,1.4s-.47,1.45-1.68,1.45H359.2v1.13c0,1.93.07,3.86,0,5.78a3.65,3.65,0,0,0,3.45,3.87c.17,0,.34,0,.6.06Z" transform="translate(-184.63 -336.12)" style="fill:#4b0983"/><path d="M439.06,417.66c-1.77-.28-2.08-.54-2-1.61s.4-1.22,2.09-1.42v-2a3.27,3.27,0,0,1,3.15-3.33,3.33,3.33,0,0,1,3.32,3.26c0,.68,0,1.37,0,2.16.91,0,1.73,0,2.55,0a1.42,1.42,0,0,1,0,2.85c-.8,0-1.6,0-2.51,0,0,.34,0,.65,0,.95,0,2,.07,4,0,6a3.65,3.65,0,0,0,3.43,3.89l.57.08a5,5,0,0,1-6.14,3.12,6,6,0,0,1-4.28-5.8q0-3.67,0-7.34C439.1,418.16,439.08,417.9,439.06,417.66Z" transform="translate(-184.63 -336.12)" style="fill:#4b0983"/><path d="M388.92,417.09c.59-.72,1.07-1.37,1.62-1.94a3.72,3.72,0,1,1,3.7,6.3,2.14,2.14,0,0,1-3.06-1.76,1.68,1.68,0,0,0-.12-.5c-.18-.27-.38-.66-.62-.71a1,1,0,0,0-.85.39,8.39,8.39,0,0,0-.74,2.6c-.1,2.38,0,4.78,0,7.16a3.26,3.26,0,0,1-2.37,3.14,3.15,3.15,0,0,1-3.55-1.46,3.82,3.82,0,0,1-.44-1.8c0-3.88,0-7.77,0-11.65a3.39,3.39,0,0,1,3.16-3.51,3.25,3.25,0,0,1,3.25,3.38,2.34,2.34,0,0,0,.09.37Z" transform="translate(-184.63 -336.12)" style="fill:#4b0983"/><path d="M452,423.07V418a3.19,3.19,0,0,1,3.1-3.25,3.12,3.12,0,0,1,3.32,3c.06,3.74.05,7.48,0,11.22a3.22,3.22,0,0,1-6.41-.28v-5.62Z" transform="translate(-184.63 -336.12)" style="fill:#4b0983"/><path d="M458.37,409.7a3,3,0,0,1-3.16,3.13,3.14,3.14,0,0,1-3.16-3.17,3.21,3.21,0,0,1,3.15-3.22A3.15,3.15,0,0,1,458.37,409.7Z" transform="translate(-184.63 -336.12)" style="fill:#4b0983"/></svg>